<svg xmlns="http://www.w3.org/2000/svg" xmlns:xlink="http://www.w3.org/1999/xlink" width="2000" zoomAndPan="magnify" viewBox="0 0 1500 449.999984" height="600" preserveAspectRatio="xMidYMid meet" version="1.0"><defs><g/><clipPath id="f17c71967f"><path d="M 1171 124 L 1299 124 L 1299 254 L 1171 254 Z M 1171 124 " clip-rule="nonzero"/></clipPath><clipPath id="c68055103b"><path d="M 1144.609375 144.160156 L 1235.488281 60.164062 L 1360.714844 195.65625 L 1269.839844 279.652344 Z M 1144.609375 144.160156 " clip-rule="nonzero"/></clipPath><clipPath id="e1ece4ced6"><path d="M 1144.609375 144.160156 L 1235.488281 60.164062 L 1360.714844 195.65625 L 1269.839844 279.652344 Z M 1144.609375 144.160156 " clip-rule="nonzero"/></clipPath><clipPath id="3645ceab41"><path d="M 1236 63 L 1365 63 L 1365 193 L 1236 193 Z M 1236 63 " clip-rule="nonzero"/></clipPath><clipPath id="c82c203e27"><path d="M 1209.890625 83.824219 L 1300.769531 -0.171875 L 1426 135.316406 L 1335.121094 219.3125 Z M 1209.890625 83.824219 " clip-rule="nonzero"/></clipPath><clipPath id="a65dddbd6c"><path d="M 1209.890625 83.824219 L 1300.769531 -0.171875 L 1426 135.316406 L 1335.121094 219.3125 Z M 1209.890625 83.824219 " clip-rule="nonzero"/></clipPath></defs><g clip-path="url(#f17c71967f)"><g clip-path="url(#c68055103b)"><g clip-path="url(#e1ece4ced6)"><path fill="#18cb96" d="M 1298.851562 129.105469 L 1188.550781 124.203125 C 1167.246094 123.253906 1163.648438 164.757812 1188.890625 165.441406 L 1257.527344 167.300781 L 1252.285156 236.363281 C 1250.6875 257.394531 1291.703125 259.613281 1292.875 238.242188 Z M 1298.851562 129.105469 " fill-opacity="1" fill-rule="nonzero"/></g></g></g><g clip-path="url(#3645ceab41)"><g clip-path="url(#c82c203e27)"><g clip-path="url(#a65dddbd6c)"><path fill="#18cb96" d="M 1364.132812 68.765625 L 1253.832031 63.863281 C 1232.527344 62.917969 1228.929688 104.417969 1254.175781 105.101562 L 1322.808594 106.960938 L 1317.566406 176.023438 C 1315.96875 197.054688 1356.984375 199.277344 1358.15625 177.902344 Z M 1364.132812 68.765625 " fill-opacity="1" fill-rule="nonzero"/></g></g></g><g fill="#ffffff" fill-opacity="1"><g transform="translate(70.822106, 366.799582)"><g><path d="M 161.171875 -167.09375 C 166.867188 -167.09375 171.46875 -165.335938 174.96875 -161.828125 C 178.46875 -158.328125 180.21875 -153.953125 180.21875 -148.703125 L 180.21875 -16.734375 C 180.21875 -11.265625 178.191406 -7.109375 174.140625 -4.265625 C 170.097656 -1.421875 165.882812 0 161.5 0 C 156.6875 0 152.363281 -1.472656 148.53125 -4.421875 C 144.707031 -7.378906 142.796875 -11.59375 142.796875 -17.0625 L 142.796875 -18.390625 C 133.828125 -9.628906 124.523438 -3.828125 114.890625 -0.984375 C 105.265625 1.859375 96.289062 3.28125 87.96875 3.28125 C 65.207031 3.28125 47.476562 -3.882812 34.78125 -18.21875 C 22.09375 -32.550781 15.75 -51.972656 15.75 -76.484375 L 15.75 -148.703125 C 15.75 -153.734375 17.390625 -158.054688 20.671875 -161.671875 C 23.960938 -165.285156 28.5625 -167.09375 34.46875 -167.09375 C 40.15625 -167.09375 44.691406 -165.285156 48.078125 -161.671875 C 51.472656 -158.054688 53.171875 -153.734375 53.171875 -148.703125 L 53.171875 -75.828125 C 53.171875 -61.597656 56.398438 -50.328125 62.859375 -42.015625 C 69.316406 -33.703125 79.550781 -29.546875 93.5625 -29.546875 C 97.71875 -29.546875 102.582031 -30.691406 108.15625 -32.984375 C 113.738281 -35.285156 119.15625 -38.734375 124.40625 -43.328125 C 129.664062 -47.921875 134.046875 -53.773438 137.546875 -60.890625 C 141.046875 -68.003906 142.796875 -76.375 142.796875 -86 L 142.796875 -148.703125 C 142.796875 -153.953125 144.328125 -158.328125 147.390625 -161.828125 C 150.453125 -165.335938 155.046875 -167.09375 161.171875 -167.09375 Z M 161.171875 -167.09375 "/></g></g></g><g fill="#ffffff" fill-opacity="1"><g transform="translate(269.072518, 366.799582)"><g><path d="M 100.453125 -170.375 C 116.640625 -170.375 130.804688 -166.816406 142.953125 -159.703125 C 155.097656 -152.585938 164.507812 -142.628906 171.1875 -129.828125 C 177.863281 -117.023438 181.203125 -102.195312 181.203125 -85.34375 C 181.203125 -67.84375 177.863281 -52.414062 171.1875 -39.0625 C 164.507812 -25.71875 155.257812 -15.320312 143.4375 -7.875 C 131.625 -0.4375 117.734375 3.28125 101.765625 3.28125 C 94.316406 3.28125 86.21875 1.96875 77.46875 -0.65625 C 68.71875 -3.28125 60.726562 -7 53.5 -11.8125 L 53.5 38.40625 C 53.5 43.875 51.582031 48.03125 47.75 50.875 C 43.925781 53.726562 39.71875 55.15625 35.125 55.15625 C 30.3125 55.15625 25.988281 53.726562 22.15625 50.875 C 18.320312 48.03125 16.40625 43.875 16.40625 38.40625 L 16.40625 -150.34375 C 16.40625 -155.59375 18.101562 -159.695312 21.5 -162.65625 C 24.894531 -165.613281 29.546875 -167.09375 35.453125 -167.09375 C 45.296875 -167.09375 51.09375 -163.257812 52.84375 -155.59375 C 60.507812 -161.0625 68.5 -164.890625 76.8125 -167.078125 C 85.125 -169.273438 93.003906 -170.375 100.453125 -170.375 Z M 100.78125 -29.875 C 113.6875 -29.875 124.078125 -34.960938 131.953125 -45.140625 C 139.835938 -55.316406 143.78125 -68.609375 143.78125 -85.015625 C 143.78125 -100.554688 139.566406 -113.140625 131.140625 -122.765625 C 122.710938 -132.398438 111.609375 -137.21875 97.828125 -137.21875 C 89.066406 -137.21875 80.53125 -134.972656 72.21875 -130.484375 C 63.90625 -125.992188 57.664062 -119.59375 53.5 -111.28125 L 53.5 -56.796875 C 57.007812 -48.253906 63.25 -41.628906 72.21875 -36.921875 C 81.1875 -32.222656 90.707031 -29.875 100.78125 -29.875 Z M 100.78125 -29.875 "/></g></g></g><g fill="#ffffff" fill-opacity="1"><g transform="translate(460.101786, 366.799582)"><g><path d="M 88.625 -167.09375 C 94.539062 -167.09375 99.25 -165.832031 102.75 -163.3125 C 106.25 -160.789062 108 -156.6875 108 -151 C 108 -145.75 106.25 -141.59375 102.75 -138.53125 C 99.25 -135.46875 94.539062 -133.9375 88.625 -133.9375 C 74.84375 -133.9375 65.160156 -129.007812 59.578125 -119.15625 C 53.992188 -109.3125 51.203125 -95.960938 51.203125 -79.109375 L 51.203125 -16.734375 C 51.203125 -11.921875 49.453125 -7.925781 45.953125 -4.75 C 42.453125 -1.582031 38.1875 0 33.15625 0 C 27.46875 0 22.867188 -1.582031 19.359375 -4.75 C 15.859375 -7.925781 14.109375 -11.921875 14.109375 -16.734375 L 14.109375 -150.34375 C 14.109375 -155.59375 16.132812 -159.695312 20.1875 -162.65625 C 24.238281 -165.613281 28.5625 -167.09375 33.15625 -167.09375 C 37.75 -167.09375 41.90625 -165.664062 45.625 -162.8125 C 49.34375 -159.96875 51.203125 -155.8125 51.203125 -150.34375 L 51.203125 -148.375 C 56.023438 -154.71875 61.609375 -159.421875 67.953125 -162.484375 C 74.296875 -165.554688 81.1875 -167.09375 88.625 -167.09375 Z M 88.625 -167.09375 "/></g></g></g><g fill="#ffffff" fill-opacity="1"><g transform="translate(558.240824, 366.799582)"><g><path d="M 93.890625 -170.375 C 111.390625 -170.375 126.703125 -166.707031 139.828125 -159.375 C 152.960938 -152.039062 163.140625 -141.804688 170.359375 -128.671875 C 177.585938 -115.546875 181.203125 -100.226562 181.203125 -82.71875 C 180.984375 -65.65625 177.207031 -50.664062 169.875 -37.75 C 162.539062 -24.84375 152.363281 -14.773438 139.34375 -7.546875 C 126.320312 -0.328125 111.171875 3.28125 93.890625 3.28125 C 76.816406 3.28125 61.710938 -0.328125 48.578125 -7.546875 C 35.453125 -14.773438 25.222656 -24.84375 17.890625 -37.75 C 10.554688 -50.664062 6.78125 -65.65625 6.5625 -82.71875 C 6.5625 -100.226562 10.226562 -115.546875 17.5625 -128.671875 C 24.894531 -141.804688 35.125 -152.039062 48.25 -159.375 C 61.382812 -166.707031 76.597656 -170.375 93.890625 -170.375 Z M 93.890625 -29.546875 C 108.765625 -29.546875 120.632812 -34.46875 129.5 -44.3125 C 138.363281 -54.164062 142.796875 -66.96875 142.796875 -82.71875 C 142.796875 -98.914062 138.363281 -112.101562 129.5 -122.28125 C 120.632812 -132.457031 108.765625 -137.546875 93.890625 -137.546875 C 79.222656 -137.546875 67.398438 -132.457031 58.421875 -122.28125 C 49.453125 -112.101562 44.96875 -98.914062 44.96875 -82.71875 C 44.96875 -66.96875 49.453125 -54.164062 58.421875 -44.3125 C 67.398438 -34.46875 79.222656 -29.546875 93.890625 -29.546875 Z M 93.890625 -29.546875 "/></g></g></g><g fill="#ffffff" fill-opacity="1"><g transform="translate(740.407778, 366.799582)"><g><path d="M 161.171875 -167.09375 C 166.867188 -167.09375 171.46875 -165.335938 174.96875 -161.828125 C 178.46875 -158.328125 180.21875 -153.953125 180.21875 -148.703125 L 180.21875 -16.734375 C 180.21875 -11.265625 178.191406 -7.109375 174.140625 -4.265625 C 170.097656 -1.421875 165.882812 0 161.5 0 C 156.6875 0 152.363281 -1.472656 148.53125 -4.421875 C 144.707031 -7.378906 142.796875 -11.59375 142.796875 -17.0625 L 142.796875 -18.390625 C 133.828125 -9.628906 124.523438 -3.828125 114.890625 -0.984375 C 105.265625 1.859375 96.289062 3.28125 87.96875 3.28125 C 65.207031 3.28125 47.476562 -3.882812 34.78125 -18.21875 C 22.09375 -32.550781 15.75 -51.972656 15.75 -76.484375 L 15.75 -148.703125 C 15.75 -153.734375 17.390625 -158.054688 20.671875 -161.671875 C 23.960938 -165.285156 28.5625 -167.09375 34.46875 -167.09375 C 40.15625 -167.09375 44.691406 -165.285156 48.078125 -161.671875 C 51.472656 -158.054688 53.171875 -153.734375 53.171875 -148.703125 L 53.171875 -75.828125 C 53.171875 -61.597656 56.398438 -50.328125 62.859375 -42.015625 C 69.316406 -33.703125 79.550781 -29.546875 93.5625 -29.546875 C 97.71875 -29.546875 102.582031 -30.691406 108.15625 -32.984375 C 113.738281 -35.285156 119.15625 -38.734375 124.40625 -43.328125 C 129.664062 -47.921875 134.046875 -53.773438 137.546875 -60.890625 C 141.046875 -68.003906 142.796875 -76.375 142.796875 -86 L 142.796875 -148.703125 C 142.796875 -153.953125 144.328125 -158.328125 147.390625 -161.828125 C 150.453125 -165.335938 155.046875 -167.09375 161.171875 -167.09375 Z M 161.171875 -167.09375 "/></g></g></g><g fill="#ffffff" fill-opacity="1"><g transform="translate(938.65819, 366.799582)"><g><path d="M 90.265625 -31.1875 C 95.304688 -34.03125 99.847656 -35.015625 103.890625 -34.140625 C 107.941406 -33.265625 111.222656 -31.347656 113.734375 -28.390625 C 116.253906 -25.441406 117.515625 -21.992188 117.515625 -18.046875 C 117.515625 -15.203125 116.640625 -12.359375 114.890625 -9.515625 C 113.140625 -6.671875 110.40625 -4.265625 106.6875 -2.296875 C 101.875 0.328125 97.492188 1.910156 93.546875 2.453125 C 89.609375 3.003906 85.015625 3.28125 79.765625 3.28125 C 65.546875 3.28125 54.601562 0.328125 46.9375 -5.578125 C 39.28125 -11.484375 34.03125 -19.140625 31.1875 -28.546875 C 28.34375 -37.960938 26.921875 -47.925781 26.921875 -58.4375 L 26.921875 -135.90625 L 14.4375 -135.90625 C 8.3125 -135.90625 3.769531 -137.546875 0.8125 -140.828125 C -2.132812 -144.109375 -3.609375 -147.609375 -3.609375 -151.328125 C -3.609375 -155.265625 -2.078125 -158.875 0.984375 -162.15625 C 4.046875 -165.445312 8.53125 -167.09375 14.4375 -167.09375 L 26.921875 -167.09375 L 26.921875 -195.3125 C 26.921875 -201.007812 28.78125 -205.28125 32.5 -208.125 C 36.21875 -210.96875 40.484375 -212.390625 45.296875 -212.390625 C 49.890625 -212.390625 54.15625 -210.96875 58.09375 -208.125 C 62.039062 -205.28125 64.015625 -201.007812 64.015625 -195.3125 L 64.015625 -167.09375 L 89.609375 -167.09375 C 95.304688 -167.09375 99.6875 -165.445312 102.75 -162.15625 C 105.8125 -158.875 107.34375 -155.265625 107.34375 -151.328125 C 107.34375 -147.390625 105.8125 -143.832031 102.75 -140.65625 C 99.6875 -137.488281 95.304688 -135.90625 89.609375 -135.90625 L 64.015625 -135.90625 L 64.015625 -58.4375 C 64.015625 -53.613281 64.34375 -48.957031 65 -44.46875 C 65.65625 -39.988281 67.128906 -36.269531 69.421875 -33.3125 C 71.722656 -30.363281 75.171875 -28.890625 79.765625 -28.890625 C 81.515625 -28.890625 83.425781 -29.160156 85.5 -29.703125 C 87.582031 -30.253906 89.171875 -30.75 90.265625 -31.1875 Z M 90.265625 -31.1875 "/></g></g></g><g fill="#ffffff" fill-opacity="1"><g transform="translate(1052.552503, 366.799582)"><g><path d="M 93.890625 -29.21875 C 100.234375 -29.21875 106.46875 -30.09375 112.59375 -31.84375 C 118.71875 -33.59375 124.410156 -36.546875 129.671875 -40.703125 C 134.703125 -45.296875 139.625 -47.425781 144.4375 -47.09375 C 149.25 -46.769531 153.238281 -45.019531 156.40625 -41.84375 C 159.582031 -38.675781 161.171875 -34.738281 161.171875 -30.03125 C 161.171875 -25.332031 158.875 -20.789062 154.28125 -16.40625 C 146.625 -8.96875 137.539062 -3.769531 127.03125 -0.8125 C 116.53125 2.132812 105.8125 3.5 94.875 3.28125 C 77.800781 3.28125 62.753906 -0.21875 49.734375 -7.21875 C 36.710938 -14.21875 26.535156 -23.957031 19.203125 -36.4375 C 11.867188 -48.914062 8.203125 -63.359375 8.203125 -79.765625 C 8.203125 -97.710938 11.703125 -113.46875 18.703125 -127.03125 C 25.710938 -140.601562 35.617188 -151.21875 48.421875 -158.875 C 61.222656 -166.539062 76.378906 -170.375 93.890625 -170.375 C 111.390625 -170.375 126.265625 -166.816406 138.515625 -159.703125 C 150.773438 -152.585938 160.132812 -142.628906 166.59375 -129.828125 C 173.050781 -117.023438 176.28125 -102.085938 176.28125 -85.015625 C 176.28125 -79.546875 175.1875 -74.894531 173 -71.0625 C 170.8125 -67.238281 165.007812 -65.328125 155.59375 -65.328125 L 46.28125 -65.328125 C 49.34375 -54.597656 55.140625 -45.894531 63.671875 -39.21875 C 72.210938 -32.550781 82.285156 -29.21875 93.890625 -29.21875 Z M 94.21875 -137.875 C 81.519531 -137.875 70.898438 -133.878906 62.359375 -125.890625 C 53.828125 -117.898438 48.359375 -107.453125 45.953125 -94.546875 L 141.484375 -94.546875 C 140.390625 -107.453125 136.117188 -117.898438 128.671875 -125.890625 C 121.234375 -133.878906 109.75 -137.875 94.21875 -137.875 Z M 94.21875 -137.875 "/></g></g></g></svg>